<svg width="27" height="27" viewBox="0 0 27 27" fill="none" xmlns="http://www.w3.org/2000/svg">
<path fill-rule="evenodd" clip-rule="evenodd" d="M12.4916 4.37888C8.04962 4.37888 4.44871 7.97979 4.44871 12.4217C4.44871 14.3778 5.14593 16.1688 6.30629 17.5631C6.48769 17.781 6.54558 18.0764 6.45991 18.3467L5.64071 20.9313L8.97271 19.8816C9.15504 19.8242 9.3516 19.8313 9.5293 19.9017C10.4449 20.2647 11.4439 20.4646 12.4916 20.4646H14.7103C19.1523 20.4646 22.7531 16.8637 22.7531 12.4217C22.7531 7.97979 19.1523 4.37888 14.7103 4.37888H12.4916ZM2.78467 12.4217C2.78467 7.06077 7.13059 2.71484 12.4916 2.71484H14.7103C20.0713 2.71484 24.4172 7.06077 24.4172 12.4217C24.4172 17.7827 20.0713 22.1286 14.7103 22.1286H12.4916C11.3367 22.1286 10.2273 21.9266 9.19796 21.5553L5.63179 22.6788C4.56092 23.0161 3.55401 22.0075 3.89323 20.9372L4.43551 21.1091L3.89323 20.9372L4.74008 18.2654C3.51292 16.6398 2.78467 14.6149 2.78467 12.4217Z" fill="#7D848D"/>
<path d="M9.71825 13.5312C10.3309 13.5312 10.8276 13.0345 10.8276 12.4219C10.8276 11.8092 10.3309 11.3125 9.71825 11.3125C9.10556 11.3125 8.60889 11.8092 8.60889 12.4219C8.60889 13.0345 9.10556 13.5312 9.71825 13.5312Z" fill="#7D848D"/>
<path d="M13.6011 13.5312C14.2137 13.5312 14.7104 13.0345 14.7104 12.4219C14.7104 11.8092 14.2137 11.3125 13.6011 11.3125C12.9884 11.3125 12.4917 11.8092 12.4917 12.4219C12.4917 13.0345 12.9884 13.5312 13.6011 13.5312Z" fill="#7D848D"/>
<path d="M17.4836 13.5312C18.0963 13.5312 18.593 13.0345 18.593 12.4219C18.593 11.8092 18.0963 11.3125 17.4836 11.3125C16.8709 11.3125 16.3743 11.8092 16.3743 12.4219C16.3743 13.0345 16.8709 13.5312 17.4836 13.5312Z" fill="#7D848D"/>
</svg>
